<?xml version="1.0" encoding="utf-8"?>
<!-- Generator: Adobe Illustrator 28.1.0, SVG Export Plug-In . SVG Version: 6.00 Build 0)  -->
<svg version="1.1"
	 id="Layer_1" xmlns:svg="http://www.w3.org/2000/svg" xmlns:sodipodi="http://sodipodi.sourceforge.net/DTD/sodipodi-0.dtd" xmlns:osb="http://www.openswatchbook.org/uri/2009/osb" xmlns:rdf="http://www.w3.org/1999/02/22-rdf-syntax-ns#" xmlns:inkscape="http://www.inkscape.org/namespaces/inkscape" xmlns:cc="http://creativecommons.org/ns#" xmlns:dc="http://purl.org/dc/elements/1.1/"
	 xmlns="http://www.w3.org/2000/svg" xmlns:xlink="http://www.w3.org/1999/xlink" x="0px" y="0px" viewBox="0 0 587.9 343.5"
	 style="enable-background:new 0 0 587.9 343.5;" xml:space="preserve">
<style type="text/css">
	.st0{fill:#333333;stroke:#FFFFFF;stroke-width:0.5;stroke-miterlimit:10;}
	.st1{fill:#FFFFFF;}
</style>
<a xlink:href="https://inkanafurniture.webflow.io/regions/hawaii" >
	<path class="st0" d="M148.2,296.7l-2.2,1.1l-0.4,2.1l3.5,1.3l1.2-0.2l0.8-2.2l-0.4-1.9L148.2,296.7L148.2,296.7z M142.1,300
		l-1.3,0.3l-1,2.1l1.4-0.1l1.1-1.8L142.1,300L142.1,300z M166.7,301.9l-3.2,1.8l-0.3,1l2.2,3l1.4-0.3l0.6-0.3l0.8,0.7l2.1-0.2
		l0.5-0.8l-1.7-0.9l-1.2-2L166.7,301.9L166.7,301.9z M175.5,307.9l-0.7,1.1l3.2,0.8l2.5,0.1l1.4-0.9l0.1-0.7l-3.5-0.2l-0.4,0.3
		L175.5,307.9L175.5,307.9z M183.1,309.3l-1.2,1.7l2.9,3.6l1.4,0.7l2.7-0.7l1.9-1.1l-0.1-1.1l-2.5-1.4l-2.5-0.5L183.1,309.3
		L183.1,309.3z M178,311.1v0.7l1.2,2.1l1.7-0.7l0.1-0.9l-1-1.1L178,311.1L178,311.1z M192.6,318.4l-0.9,0.8l0.2,1.2l1,1l-0.2,0.6
		l-1.1,1.8l-1.3,0.6l0.2,1.4l1.3,0.9l1.1,3.1l-0.3,1.4l0.3,2.5l2.1,1.3l1,0.1l1.2-1.7l1.3-1.9l1.7-1.1l0.8,0.3l2.3-0.9l2.1-1.9
		l0.2-0.8l-2.3-1.3l-1.3-2.4l-1-1.3l-2-1.1l-4.4-1.8L192.6,318.4L192.6,318.4z"/>
</a>
<a xlink:href="https://inkanafurniture.webflow.io/regions/alaska" >
	<path class="st0" d="M74.4,253.9l5,32.4l0.7,0.3l1.2-0.1l0.5-0.5l1-0.2l0.2,1.1l3,2.1l0.3,0.9l1.2-1l0.2-0.1l-0.1-1.2l0.5-0.7
		l0.4-0.1l0.6-0.7l1.3,0.6l0.4,1.1l0.8,0.3l0.6,0.8l1.6,0.4l1.6,2.1l1.3,1.3l1,0.9l0.8,1.3l2,0.4l2.1,0.5l0.6,1.6l0.4,1.1l-0.2,1.3
		l-0.5,1l-0.7-0.2l-0.7-1.1l-1.1-0.4l-0.7-0.3l-0.3,0.4l0.7,0.9l0.3,1.4l-0.4,0.3l-0.8-0.6l-0.9-0.4l0.3,0.6l0.6,0.6l-0.3,0.4
		c0,0-0.3-0.1-0.5-0.3c-0.2-0.2-1-1.2-1-1.2l-0.5-0.8c0,0,0,0.5-0.3,0.4S96,300,96,300l0.6-0.8l-0.6-0.5l-0.3-1.9l-0.3,0.1l-0.1,1.3
		l-0.4,0.3l-0.6-1.3l-0.5-1.4l-0.3-0.1l0.5,2.1l0.1,0.4l-0.6-0.4l-1.7-2H91l-0.5-1.4l-0.8-1l-0.7-0.3l-0.1-0.9l0.7-0.6l-0.2-0.1
		l-0.9,0.4l-1.4-0.7l-1.2-0.9l-2-0.7l-1.7-0.7l0.3-1.3l-0.1-0.6l-0.6,0.7l-1,0.6l-1.5-0.2l-2.3-0.6l-2.1,0.4l-0.2,0.2L72,287h-0.8
		l-1.4-2l-1.3,0.3l-1.3,0.8l0.5,1.7l0.3-1.2l0.4,0.1l-0.3,1.7l1.1-1.2l0.3,0.6l-1.2,1.9h-0.5l-0.3-0.7l-0.5-0.2l-0.4,0.5l-1.1-0.5
		l-1,1l-0.5,0.9l-1.2,1l-1.8,0.2l-0.3-0.8l1.4-0.5l-0.1-0.5l-0.9-0.1l0.2-1l0.6-1.6l-0.1-0.7v-0.3l1.5-1.1l0.4,0.4l1-0.2l-0.6-0.9
		l-1.4,0.1l-1.7,1.4l-0.7,1.4l-0.5,1.1l-0.3,0.9l-1.5,0.8l-1,1.2v0.6l0.9,0.2l0.4,0.7l-0.8,1.4l-2.2,2l-2.7,2.1l-0.7,0.6l-1.9,0.8
		l-1.9,1.2l0.7,0.4l-0.5,0.6l-0.1,0.5l-1.1-0.2l-1.2,0.3l-0.2,0.9l-0.4,0.1v-0.9l-1.3,0.7l-1,0.6l-1.4-0.3l-1,0.9l-1.2,0.2l-0.7,0.6
		L38,306h-0.8l-1-0.3l-0.8,0.4l-0.3,0.4l-0.7-0.3l-0.1-0.7l1.1-0.7l2.4-0.2l1.5-0.9l0.7-0.9l1.1-0.4l0.6-0.4l1-0.1l0.7,0.4l0.3-0.2
		l0.7-1.2l1.1-0.6l1.2-0.5l0.5-0.2l0.3,0.1l0.3-0.1l0.3-1.5l1.4-0.8L50,296l0.6-1.9l0.5-0.7v-1l-0.5,0.6l-1.2,0.5l-0.4-0.9h-0.5
		l-0.3,0.4l0.1,1.1h-0.6l-0.9-2.1l-0.4,0.6l-0.5-0.1l-0.2-0.7l-1.5,0.3l-0.7,0.6h-1l0.5-0.6v-1l-0.4-0.7l0.5-0.5l0.5-0.1l-0.4-0.6
		l-0.3-1.7l-0.4-0.3l-0.2,0.6l-2.3,0.4l-0.6-0.4l-0.5-1.4l-1-1.2l-0.1-0.4l0.7-0.4l-0.1-0.8l0.4-0.5l-0.3-0.1l-0.5,0.3l-0.6-1l0.1-2
		l1.5-1.5l0.9-0.8l0.5-1.5l1-0.7l1,0.3l0.3,0.9l0.9-0.3l1.1-1.1l0.6,0.1l0.4,0.2l0.6-0.1l0.8-0.6v-1.7c0,0-0.1-1.1,0.2-1.3
		c0.2-0.2,0.3-0.4,0.3-0.4l-0.5-0.7l-0.9,0.5l-1.2,0.5l-0.8-0.1l-1.4-0.4l-1.9,0.3l-1.6-1.2l-0.1-1.5l0.1-1l-0.9-0.5l-1-1.3l0.1-0.3
		l2.5-0.6l0.8-0.1l0.4,0.3h0.2l-0.2-0.6l1.4-0.5h1l0.6,0.3l-0.4,0.9l-0.1,0.6l1.1,0.4l2,0.4l0.6-0.5l-1.1-1.5l-0.6-1.2l0.3-0.4
		l-1.4-0.5l-0.3-0.4l0.1-0.6l-0.5-1.4l-1.4-1.6l-1.2-1.4l1-0.9l1.2-0.2l0.7,0.1l1.6-0.3l1.2-1.6l0.2-1.2l1.3-1.2l0.7,0.3l1-0.4
		l1.3-1l0.4-0.1l0.4,0.2L54,251l0.9-1.3l0.4-0.1l1.5,0.7l0.9,0.7l-0.1,0.5l0.3,0.4l0.5-0.7l1.5-0.1l0.3,1.4l0.8,0.4l2.7-0.2l2.6,1.2
		l0.5-0.5l2.1,0.7l0.8-0.4l0.7-0.4l1.9,0.4L74.4,253.9L74.4,253.9z M32.8,272.3l1.1,1.9v0.4l-1.1,0.1l-0.9-1.4l-0.8-0.4l-0.9,0.2
		l-0.2-1l0.5-1l0.6,0.8l0.6,0.5L32.8,272.3L32.8,272.3z M33.8,285.1l1.5,0.1l1.5,0.1l0.4,0.3l-0.4,1.5l-1.2,0.1l-1.5-1.1L33.8,285.1
		L33.8,285.1z M25.2,281.1l0.6,0.9l0.5,0.5l-0.4,0.4l-1-1l-0.1-0.7C24.8,281.2,25.2,281.1,25.2,281.1z M24.4,309.7l1.1-1.1l1.2-0.6
		h1l0.3,0.6l0.8,0.1l0.6-0.9l-0.2-0.6l1-0.4l1.3,0.8l-0.3,0.7l-1.6,0.7h-1.1l-1.5-0.2l-1.6,0.8l-0.6,0.2L24.4,309.7L24.4,309.7z
		 M42.6,304.8l0.7,0.6l0.7-0.7l-0.6-0.4L42.6,304.8z M43.9,305.8l0.3-0.9H45l-0.2,0.8L43.9,305.8L43.9,305.8z M52.7,303.6l0.7,0.6
		l0.3-0.5l-0.4-0.7L52.7,303.6z M55.2,298.3l0.8,2.1l1.1,0.1l1.7-1.4l1.5-1.3l-0.8-0.8v-1l-0.7,0.6l-1.1-0.1l0.5-0.5l0.8,0.2
		l1.4-0.9l0.1-0.6l-1-0.2l0.2-0.8l-0.9,0.9l-1.6,1.6l-1.7,1.4L55.2,298.3L55.2,298.3z M70,288l0.8-0.7l-0.5-0.6l-0.6,0.5
		C69.7,287.2,70,288,70,288z"/>
</a>
<a xlink:href="https://inkanafurniture.webflow.io/regions/florida" >
	<path class="st0" d="M435,242.1l1.5,4l2.4,5.4l3.3,5.1l2.3,3.4l2.9,2.9l2.4,2l1,1.6l-0.6,0.8l-0.4,0.7l1.9,4.1l1.7,1.5l1.6,2.9
		l2.2,3.2c4.2,13.8,0.4,16.4-5.4,25.8c-2.9,4.8-5.1-5.8-6.8-5.8l-0.4,0.7l-1.9-2.4l-0.5-2l-1.6-2.2l-1-0.6c-1,1.4-1-3.8-3.1-7.3
		c-1.6-2.6-5.1-1.7-6.1-2.9c-2.4-3.1-0.6-5.5-1-7.2c-0.1-0.7-3.6,1.6-3.9,0.1c-0.2-0.7,1.6-7,1.5-9.2l-1.8-2l-0.8-1.7l-3-0.6
		l-1.1-0.3l-1-1.4l-2-0.8l-0.7-1.9l-1.6-0.5l-1.5-2l-2.4-0.7l-1.7-0.7l-1.5,0.1l-2.3,0.6v1.1l0.5,0.5l-0.2,0.6h-1.7l-2,2.1l-2,1.2
		l-2.2,0.1l-1.8,0.8l-0.3-1.5l-1-1l-1.7-0.5l-1-0.8l-4.7-1.9l-4.3-0.8l-2.4,0.5l-3.4,0.4l-3.3,1.4l-1.2,0.6l-0.6-4.4l-1.5-1
		l-1.1-0.9v-1.6l5.8-1.1l12.8-2.2l5.3-0.8l3,0.1l1.4,1.8l0.7,0.7l4.6,0.1l6.1-0.7l12.1-1.3l3.1-0.5h2.9l0.3,1.6l1.3,0.4v-2.6l-1-2.3
		l0.7-0.8l3.1,0.1L435,242.1L435,242.1z"/>
</a>
<a xlink:href="https://inkanafurniture.webflow.io/regions/michigan" >
	<path class="st0" d="M316.5,63.3l-0.4,0.4l2.4,2.8l4.8,0.4l5,1l1.7,0.5l6.7,1.3l1.3,1.5l2,0.6l1.3,5.7c0.6,0.3,1,0.6,1.6,1l2.8-4.3
		l0.5-2.3l1.1-2.5l0.5-0.1l0.7,0.9h0.4l2.7-1.5l0.9,0.9l0.3,0.1l0.8-0.7l0.6-1.7l1.4-0.5l4.2-0.6l1.1-1.5l3.1-0.3
		c20.1,1.5,2.9-6,0.4-5.7c-1.8-4.7-12.9,3.7-14.8,5c-7,0.3-9.8-5.3-16.7-0.9C333.8,50.5,335,54.8,316.5,63.3L316.5,63.3z
		 M391.5,99.2c0.1-0.6,0.2-1.2,0.3-1.8c0.1-0.9,0.2-1.9,0.2-2.9c0.1-8.7-3.9-16.7-8.1-5.6c-8.8,0.3-1.9-4.2-0.4-4.4l0.3-1.5l1.4-1
		l-0.5-5.6l-1.1-1.2l-0.8-0.4c0.1-2.3-4.8-8.3-18.6-0.9l0,0l-0.1,1.2l0.2,0.9l0.4,3.1l-2.1,1.3l-0.4-0.1l-0.1-2.4l0.7-1.4l0.3-1.4
		l-0.5-0.4l-1.1,0.5l-0.5,2.4l-1.6,0.7l-1,1.1l-0.1,0.5l0.4,0.4l-0.3,1.5l-1.3,0.3v0.6l0.5,1.3l-0.5,3.5l-0.8,2.3l0.5,2.6l0.3,0.6
		l-0.4,1.4l-0.2,0.4l-0.1,1.6l2.3,3.3l2,3.5l1,2.7l-0.3,2.6l-0.4,3.4l-1.3,3l-0.1,1.5l-3.7,2.3l2.9-0.2l15.4-2.4l4.1-0.5l2.5-0.3
		l8.4-1.7"/>
</a>
<a xlink:href="https://inkanafurniture.webflow.io/regions/maine" >
	<path class="st0" d="M518.8,30.8l1,1c-0.2,2.4,0.5,7.1-1,9.6c-1.8,3-4.7,3.8-8.6,7c-3.2,2.6-7.6,4.1-9.4,6.6l0.6,1.7l-0.7,0.7v2.3
		l-0.4,3.3l-1.3-0.5l-0.3-1.6l-2-0.5l-0.2-1.4l-4.2-12l-2.7-7.5l0.7-0.1l0.8,0.2l-0.1-1.3l0.5-2.4l1.2-2.5l0.6-2.1l-1-1.2l-0.2-3.1
		l0.4-0.5l0.3-1.5l-0.1-0.8l-0.2-2.5l0.8-2.6l1.2-4.7l0.9-2.2h0.6h0.6v0.6l0.7,1.1L499,14l0.4-0.4v-0.5l1.9-1.6l0.8-1h0.7l3,1.1
		l1,0.5l5.3,15.3l3-0.2l0.5,1l0.2,2.5l1.5,1.1h0.4l0.1-0.3l-0.3-0.6L518.8,30.8L518.8,30.8z"/>
</a>
<a xlink:href="https://inkanafurniture.webflow.io/regions/west-virginia" >
	<path class="st0" d="M430.2,129.8l0.6,2.6l0.7,3.5l0.8-1.2l1.5-2.1l1.4-0.4l0.8-0.9l0.9-1.5l0.8,0.3l1.6-0.3l1.4-1.3l1.1-0.9
		l0.9,0.3l1,0.3l1.9,0.5l1,0.8l0.9,0.8l-0.3,3.1l-3.4-1.3l-2.4-0.8l0.1,2.9l-1.4,3.2l-1.4,1.4l-0.6,1.6l-1.5,0.4l-0.4,2l-0.5,2.2
		l-2.2,0.3l-1.4-1.3l-0.6,0.3l-0.2,3.1l-0.7,2l-2.5,6.3l0.5,0.6l-0.1,1.1l-1.5,2.3l-1-0.3l-1.6,1.3l-1.5-0.2l-1,2.6
		c0,0-1.8,0.9-2.2,0.9c-0.1,0-1.4-0.6-1.4-0.6l-1.3,0.8l-1.3,0.7l-2.1-0.4l-0.7-0.6l-1.3-1.4l-1.4-0.9l-1.1-2l-2.4-1.8l-0.5-1.3
		l-1.5-0.8l-0.5-0.9l-0.2-3l1.2-0.1l0.7-0.3v-1.6l0.9-0.9l-0.1-2.7l0.5-2.3l0.7-0.4l0.8,0.6l0.4,0.9l0.9-0.6l0.2-0.8l-0.7-1v-1.3
		l0.4-0.6l1.1-1.9l0.5-0.9l1.2,0.2l1.2-1l1.6-2l1.4-2.4v-2.8l0.1-2.8l-0.3-3l-0.6-1.6l0.2-0.7l1-1l2.5,10.7l2.6-0.6l5.9-0.8
		L430.2,129.8z"/>
</a>
<a xlink:href="https://inkanafurniture.webflow.io/regions/ohio" >
	<path class="st0" d="M414,105.1l-3.3,2.4l-2.1,1.4l-1.8,2.2l-2.2,2.3l-1.8,0.5l-1.6,0.4l-3,1.6l-1.2,0.2l-2-1.6l-2.9,0.5l-1.5-0.7
		l-1.4-0.7l-3.4,0.7l-5,1l-6.6,0.8l1.3,8.9l1.2,7.2l2.3,13.5l0.5,3l2.5-0.5l1.3-0.5l1.9,0.7l1.3,2.4l2.9-0.2l1.1,1.1l1-0.1l1.4-0.8
		l1.4,0.1l3.1,0.1l0.9-1.2l1.3-0.8l1.1-0.4l0.4,1.5l1,0.5l2,1.2l1.2-0.1l0.7-0.3v-1.6l0.9-0.9l-0.1-2.7l0.5-2.3l0.7-0.4l0.8,0.6
		l0.4,0.9l0.9-0.6l0.2-0.8l-0.7-1v-1.3l0.4-0.6l1.1-1.9l0.5-0.9l1.2,0.2l1.2-1l1.6-2l1.4-2.4v-2.8l0.1-2.8l-0.3-3l-0.6-1.6l0.2-0.7
		l1-1l-1.6-5L414,105.1L414,105.1z"/>
</a>
<a xlink:href="https://inkanafurniture.webflow.io/regions/indiana" >
	<path class="st0" d="M353.6,152.8l-0.2-1.9l0.2-3l-0.7-4l-1.1-8.8l-1.2-8.4l-0.9-6.5l2,0.3l0.9,0.5l0.6-0.2l1.1-1.1l1.6-1l2.9-0.2
		l12.3-1.9l3.1-0.5l1.3,8.9l3.5,20.5l0.5,3.2l-0.1,1.3l0.7,1l0.1,0.8l-1.4,1l-2,1l-1.8,0.4l-0.2,2.7l-2.5,2l-1.5,2.3l0.3,1.3
		l-0.3,0.9l-1.9,0.1l-0.9-0.9l-1.4,0.8l-1.5,0.9l0.2,1.7l-0.7,0.2l-0.3-0.6l-1.3-0.8l-1.8,0.8l-0.8,1.7l-0.8-0.4l-0.9-0.9l-2.5,0.4
		l-2.6,0.7l-1.4,0.8l-0.1-1.3l0.2-2.6l1.2-1.7l0.9-2.3l1.1-2.3l-0.4-2.9L353.6,152.8z"/>
</a>
<a xlink:href="https://inkanafurniture.webflow.io/regions/illinois" >
	<path class="st0" d="M353.6,152.8l-0.2-1.9l0.2-3l-0.7-4l-1.1-8.8l-1.2-8.4l-0.9-6.5l-0.2-0.5l-0.5-1.4l-0.8-2l-1-0.9l-0.9-1.4
		l-0.3-3.1l-25.8,2.8l0.2,1.3l1.3,0.3l0.6,0.6l0.3,1l2.3,1.8l0.5,1.3l-0.3,1.9l-0.9,2.1l-0.3,1.4l-1.2,1.1l-1,0.4l-2.9,0.9l-0.3,1
		l-0.3,1.2l0.4,0.7l1.1,0.8v2.3l-1,1l-0.3,0.9l0.1,1.5l-1,0.3l-0.9,0.7l-0.1,0.8l0.2,1.1l-1,1.1l-0.4,1.1l0.3,2.4l1.5,4l4.2,4.1
		l3.2,1.8l0.2,2.4l0.6,0.9l3.9,0.2l1.1,0.5l-0.2,1.6l-1,3.5l-0.4,1.8l1.1,2.3l4.1,2.9l2.7,0.3l1.2,2.5l1.2,1.9l-0.4,1.4l0.9,2.6
		l1.2,1.2l1-0.6l0.4-1.1l1.2-1.1l1.2-0.4l1.8,0.7l1.8,0.5l0.6-0.2v-1.3l-0.8-1.3l0.1-1.3l1.1-0.9l1.4-0.4l0.9-0.4l-0.5-1l-0.1-1
		l0.8-0.6l0.6-1.8l-0.1-1.8l0.2-2.6l1.2-1.7l0.9-2.3l1.1-2.3l-0.4-2.9L353.6,152.8z"/>
</a>
<a xlink:href="https://inkanafurniture.webflow.io/regions/wisconsin" >
	<path class="st0" d="M346,110.9l0.1-1.9l-0.8-2.5l-0.5-3.4l-0.7-1.3l0.5-1.7l0.4-1.7l0.7-1.5l-0.5-1.9l-0.5-2l0.2-1l1-1.4v-1.5
		l-0.5-0.7l0.3-1.5l-0.4-2.3l1.4-3.3l1.4-3.9v-1.3l-0.2-0.5l-0.4,0.3l-2.2,3.7l-1.4,2.3l-1,1.1l-0.4,1.3l-1.1,0.5l-0.6,1.1l-0.8-0.1
		l-0.1-1l0.7-1.4l1.1-2.7l1-1l0.5-1.3l-1.5-1l-1.4-5.8l-2-0.6l-1.2-1.2l-6.9-1.2l-1.7-0.5l-4.7-1l-4.5-0.4l-2.3-2.8l-0.4,0.3
		l-0.7-0.1l-0.9-2.9c-2.6-0.3-7.2,4.1-9.2,3.9l-3.2-1.8l-1.1,1.7v1.5l0.2,4.7l-0.6,0.9l-2.9,2.3L297,78l0.3,0.1l1.5,1.1l0.5,1.8
		l-0.9,1.8l0.1,2.2l0.5,3.7l1.8,1.6l1.9-0.1l1.1,1.7l1.9,0.2l2.4,3.1l4.1,2.1l1.2,1.5l0.7,4.1l0.5,1.8l1.3,0.8l0.2,0.8l-1.1,2
		l0.2,1.8l1.5,2.1l1.5,0.6l1.7,0.2l0.3,0.7l25.6-2.8L346,110.9z"/>
</a>
<a xlink:href="https://inkanafurniture.webflow.io/regions/north-carolina" >
	<path class="st0" d="M473.2,158.8l1.3,2.7c-0.6,1.1-3.4,4.6-3.4,5c0,1.2,11.5-0.8,11.9-0.1c1.2,2.2-7.1,7.4-14.5,6
		c-3.7-0.7,7.8,2.2,6.7,4.4c-2.2,1-4.3,0.4-8.1,4.4c-2.1,2.2-1,6.9-2.2,9c-1.3,2.2-8.4,8.7-9.6,7.6c-1.1-1-2.7-1.9-6-4.3l-7.3-3.9
		l-1.7-0.4l-7.1,1.2l-2.4,0.5l-1-1.8l-1.7-1.1l-9.3,0.8l-4.1,0.7l-5,2.8l-3.4,1.6l-11.9,2.1l0.2-2.3l1-0.9l1.5-0.4l0.3-2.1l2.3-1.7
		l2.1-0.9l2.3-2.1l2.4-1.3l0.3-1.7l2.1-2.3l0.4-0.1c0,0,0,0.6,0.5,0.6s1.1,0.1,1.1,0.1l1.2-2.1l1.2-0.4l1.3,0.1l0.8-2l1.6-1.6
		l0.2-1.1l0-2.4l2.2-0.1l3.8-0.7l9-1.7l8.8-1.6l11.8-3.1l11.1-2.9l6.2-1.6L473.2,158.8L473.2,158.8z"/>
</a>
<a xlink:href="https://inkanafurniture.webflow.io/regions/tennessee" >
	<path class="st0" d="M395.8,176.2l-29.2,4.3l-8.8,1.5l-2.6,0.4l-2.2,0.1v2.3l-4.6,0.4l-3.9,0.6l-4.6,0.2l-0.6,4l-0.9,3.1l-0.5,2
		l-0.6,2.2l-0.3,1.1l-1.5,1.4l0.9,2.2l1.8,0.2l-1,0.7l-0.1,1.9l57.5-8.7l0.1-2.2l1-0.9l1.6-0.5l0.3-2.1l2.2-1.6l2.2-1l2.2-2.1
		l2.4-1.3l0.2-1.7l2.2-2.4l0.3-0.1c0,0,0.1,0.6,0.5,0.6c0.5,0,1.1,0.1,1.1,0.1l1.2-2.1l1.2-0.4l1.3,0.1l0.8-2l1.6-1.6l0.2-1.1l0-2.4
		l-1.2,0l-1.4,1.2l-3.9,0.2l-10.8,2.2L395.8,176.2L395.8,176.2z"/>
</a>
<a xlink:href="https://inkanafurniture.webflow.io/regions/arkansas" >
	<path class="st0" d="M290.2,190.9l1.1,4.2l0.3,5l1.1,6.1l1.1,20.4l1.6,1.1l1.7-0.8l1.6,0.6l0.2,3.5l31.4-2.3l0.6-1.2l-0.3-2
		l-1.1-1.6l0.9-0.9l-1-1.4l0.3-1.4l0.6-3.2l1.4-1.2l-0.5-1.3l1.9-3.1l1.5-0.8l-0.1-0.8l-0.2-1l1.5-3.2l1.3-0.8l0.1-1.9l1-0.7
		l-1.8-0.2l-0.9-2.2l1.5-1.4l0.3-1.1l0.6-2.3l0.5-1.9l-2.2,0.5l-2.9-0.2l0.2-0.9l1.6-1.5l0.4-2.1l-1.1-1.6L290.2,190.9z"/>
</a>
<a xlink:href="https://inkanafurniture.webflow.io/regions/montana" >
	<path class="st0" d="M278.2,146.1l1.9,2.2l1.8,1.4l1.2,0.1l0.9,0.5l0.1,1.7l-1,0.9l-0.2,1.3l1.3,1.9l1.5,1.6l1.5,1l1.1,6.5
		l1.2,20.2l0.3,2.6l0.4,3l12.6-1.1l13.1-1.1l12.1-1l6.4-0.5l1.1,1.6l-0.4,2.1l-1.6,1.5l-0.2,0.9l2.9,0.2l2.2-0.5l0.9-3.2l0.6-3.9
		h0.3l0.6-0.8l1.4-0.9v-1.8l0.5-1.1l-1-1.4l-1,0.6l-1.2-1.2l-0.9-2.6l0.4-1.4l-1.2-1.9l-1.2-2.5l-2.7-0.3l-4.1-2.9l-1.1-2.3l0.4-1.8
		l1-3.5l0.2-1.6l-1.1-0.5l-3.9-0.2l-0.6-0.9l-0.2-2.4l-3.2-1.8l-4.2-4.1l-1.5-4l-0.3-2.4l0.4-1.1l-1.5-1.9l-0.7-1.2l-36.3,3.2
		l-1.3,0.1l0.8,1.4l-0.1,1.3L278.2,146.1z"/>
</a>
<a xlink:href="https://inkanafurniture.webflow.io/regions/georgia" >
	<path class="st0" d="M389.8,218l1,3.9l1.4,3.5l1.6,1.8l0.4,1.9l1.1,0.4l0.2,1.2l-0.9,2.8l-0.2,1.8v1.1l1,2.4l0.3,3l-0.4,1.4
		l0.4,0.4l0.8,0.4l0.1,1.7l1.4,1.8l0.7,0.7l4.6,0.1l6.2-0.7l12-1.3l3.1-0.5h2.9l0.3,1.6l1.3,0.4v-2.6l-1-2.3l0.7-0.8l3.1,0.1
		l3.1-0.1l-0.4-3.3l1-5.7l0.7-2.4l-0.3-1.4l1.7-3.6l-0.3-0.7l-1.1,0.5l-1.5-0.7l-0.4-1.2l-0.8-2l-1.3-1.1l-1.5-0.3l-1.1-2.7
		l-1.8-3.5l-2.4-1l-1.2-1l-0.8-1.4l-1.2-1l-1.3-0.7l-1.4-1.6l-1.8-1.2l-2.6-0.9l-0.3-0.8l-1.5-1.6l-0.3-0.8l-2.1-2.7l-2,0.2
		l-2.2-1.2l-0.8-0.7l-0.2-1l0.4-1.1l1.2-0.7l-0.4-1.2l-23.8,4.2v1.2l0.2,1.2l0.5,1.9l2.1,4.3l1.7,5.7l1,3.2L389.8,218z"/>
</a>
<a xlink:href="https://inkanafurniture.webflow.io/regions/south-carolina" >
	<path class="st0" d="M429.3,217.3l-1.7-3.3l-2.4-1l-1.2-1l-0.8-1.4l-1.2-1l-1.3-0.7l-1.4-1.6l-1.8-1.2l-2.6-0.9l-0.3-0.8L413,203
		l-0.3-0.8l-2.1-2.8l-1.9,0.2l-2.3-1.2l-0.8-0.7l-0.2-1l0.4-1.1l1.2-0.6l-0.4-1.3l3.2-1.5l5-2.8l4.4-0.7l9.1-0.7l1.5,1l1,1.8
		l2.4-0.5l7.1-1.2l1.7,0.4l7.3,3.9l5.9,4.3l-2.9,3.2l-1.3,3.5l-0.1,3.5l-0.9,0.5l-0.6,1.6l-1.3,0.4l-1.1,2.1l-1.5,1.6l-1.2,2
		l-0.9,0.5l-1.9,2l-1.6,0.2l0.6,1.8l-2.7,3.2l-1.2,0.8l-1,0.6l-1.5-0.6l-0.4-1.2l-0.8-2l-1.3-1.1l-1.5-0.3L429.3,217.3z"/>
</a>
<a xlink:href="https://inkanafurniture.webflow.io/regions/kentucky" >
	<path class="st0" d="M352.2,168.4l0-0.5l0.8-0.4l0.7-0.3l2.6-0.7l2.5-0.4l0.9,0.9l0.8,0.4l0.8-1.7l1.8-0.8l1.3,0.8l0.3,0.6l0.7-0.2
		l-0.2-1.7l1.5-0.9l1.4-0.8l0.9,0.9l1.9-0.1l0.3-0.9l-0.3-1.3l1.5-2.3l2.5-2l0.2-2.7l1.8-0.4l2-1l1.4-1l-0.1-0.8l-0.7-1l0.1-1.3
		l2.5-0.5l1.3-0.5l1.9,0.7l1.3,2.4l2.9-0.2l1.1,1.1l1-0.1l1.4-0.8l2.1,0.1l2.4,0.1l0.9-1.2l1.3-0.8l1.1-0.4l0.4,1.5l1,0.5l2,1.2
		l0.2,3l0.5,0.9l1.5,0.8l0.5,1.3l2.4,1.8l1.1,2l1.4,0.9l0,0l-1.2,1.4l-1.9,2.3l-2.6,3.2l-0.6,1v1.2l-2.3,1.4l-3.2,2l-4,1.2
		l-29.7,4.4l-8.4,1.4l-2.6,0.4l-2.2,0.1v2.3l-4.6,0.4l-3.7,0.6l-4.5,0.2l0.6-0.8l1.4-0.9v-1.8l0.5-1.1l-1-1.4l0.4-1.1l1.2-1.1
		l1.2-0.4l1.6,0.6l2,0.6l0.6-0.2v-1.3l-0.8-1.3l0.1-1.3l1.1-0.9l1.4-0.4l0.9-0.4l-0.5-1l-0.1-1l0.8-0.6"/>
</a>
<a xlink:href="https://inkanafurniture.webflow.io/regions/alabama" >
	<path class="st0" d="M363.4,257.2l-1.3-7.9l-2-10l-0.3-7.9l-0.4-17.4l-0.6-9.3l-0.6-3.1l25-3.8v1.2l0.2,1.2l0.5,1.9l2.1,4.3
		l1.7,5.5l1,3.4l1.1,2.7l1,3.9l1.4,3.5l1.6,1.8l0.4,1.9l1.1,0.4l0.2,1.2l-0.9,2.8l-0.2,1.8v1.1l1,2.4l0.3,3l-0.4,1.4l0.4,0.4
		l0.8,0.4l0.1,1.7l-3-0.1l-3.8,0.6l-14.3,2.4l-5.8,1.1v1.6l1.1,0.9l1.5,1l0.6,4.4l-3.1,1.6c-4.3,2.1-0.7,0.9-3.2-1.7
		c-0.6-0.6-1.6,0.4-1.8,0.3l-1.5,0.1L363.4,257.2z"/>
</a>
<a xlink:href="https://inkanafurniture.webflow.io/regions/louisiana" >
	<path class="st0" d="M349.8,257.7l-1.9-1.7l0.4-3.1l-0.4-0.5l-5.2,0.8l-14,1.1l-0.5-1.2l0.3-4.7l1.9-4l2.4-4.6l-0.3-1.3l0.7-0.4
		l0.2-1.1l-1.4-1.1l-0.1-1.2l-1.2-2.3l-0.4-3.7l-31.4,2.2l0.3,5.4l0.7,5.2l0.5,2.2l1.5,2.2l0.7,2.8l2.6,2.9l0.2,1.8l0.4,0.4
		l-0.1,4.8l-1.5,2.9l1,1.1l-0.3,1.4l-0.2,4.1l-0.7,1.8l0.2,2l2.6-1l6.8-0.2l5.9,1.7l3.7,0.4l2.1-0.9l1.9,0.5l1.9,0.4l0.4-1.2
		l-1.9-0.5l-1.4,0.3l-1.6-0.8c0,0,0.1-0.7,0.4-0.8c0.4-0.1,1.7-0.6,1.7-0.6l1,0.8l1-0.6l1.8,0.3l0.9,1.3l0.2,1.3h2.6l1.1,0.9
		l-0.4,0.9l-0.7,0.5l1,0.9l4.8,1.7l2-0.8c0.2-0.7,2.2-1.2,4.1-4.2c0.1-0.1,8.4,3.2,8.5,3c0.7-1-7.1-6.8-7.5-8c-0.9-2.9-10.4-4-9.9-5
		c0.4-0.7,13.3,0.4,14.1-1.1l-0.7-1.3L349.8,257.7L349.8,257.7z"/>
</a>
<a xlink:href="https://inkanafurniture.webflow.io/regions/mississippi" >
	<path class="st0" d="M351.9,260.8l-0.6,0.5l-0.7-1.4l-0.8-2.1l-2-1.7l0.5-3.1l-0.4-0.5l-1,0.2l-4.4,0.7l-13.8,0.9l-0.5-1.2l0.3-4.7
		l1.6-3.3l2.7-5.3l-0.3-1.3l0.7-0.4l0.2-1.1l-1.4-1.1l-0.1-1.2l-1.2-2.3l-0.4-3.7l0.6-1.2l-0.3-2l-1.1-1.6l0.9-0.9l-1-1.4l0.3-1.2
		l0.6-3.4l1.4-1.2l-0.5-1.3l1.9-3.1l1.5-0.8l-0.1-0.8l-0.2-1l1.5-3.2l1.3-0.8l3.8-0.6l17.3-2.6l0.6,3.1l0.6,9.3l0.4,17.4l0.3,7.9
		l2.1,10.4l1.2,7.5l-0.1,0.7l-2.9,0.1l-0.8-0.4l-1.2-0.1l-3.8,1.3l-1-0.4L351.9,260.8z"/>
</a>
<a xlink:href="https://inkanafurniture.webflow.io/regions/indiana" >
	<path class="st0" d="M325.1,121.9l-0.9,2.1l-0.3,1.4l-1.2,1.1l-1,0.4l-2.9,0.9l-0.6,2.2l0.4,0.7l1.1,0.8v2.3l-1,1l-0.3,0.9l0.1,1.5
		l-1,0.3l-0.9,0.7l-0.1,0.8l0.2,1.1l-1,1.1l-1.5-1.7l-0.8-1.3l-37,3.3l-0.5,0.1l-1.3-2.5l-0.3-3.7l-1-2.3l-0.5-2.9l-1.4-2l-0.7-2.7
		l-1.8-4.1l-0.8-3l-0.8-1.2l-1-1.5l1-2.8l0.6-3.2l-1.6-1.1L266,107l0.4-1.4h1l46.6-3.1l0.6,2.3l1.3,0.8l0.2,0.8l-1,2l0.2,1.8l1.4,2
		l1.5,0.6l1.7,0.2l0.3,0.7l0.2,1.3l1.3,0.3l0.6,0.6l0.3,1l2.3,1.8l0.5,1.3L325.1,121.9z"/>
</a>
<a xlink:href="https://inkanafurniture.webflow.io/regions/minnesota" >
	<path class="st0" d="M265.3,76.5l-0.5-4.7l-1.2-4l-1.4-7.5l-0.5-5.5l-1.1-1.9l-1-2.8l-0.3-5.8l0.3-2.2l-1.2-3l17-0.9l-0.1-4.6
		l0.4-0.1l1.3,0.2l1.1,0.4l0.6,3.1l1,3.4l1,0.9l11.9,0.1l0.2,0.8c2.1,0,0.8,3.7,5.8,5.4c1.5,0.5,7.1-0.2,9.1-0.1
		c5.1,0,18.4-2,5.8,4.5l-1.7,1.5l-1.3,2.1l-1.2,2.2l-1,0.5l-2.4,2.9l-0.7,0.1l-2.4,1.7l-1.3,1.9v1.8l0.3,4.5l-0.7,1l-2.8,2.3
		l-1.1,3.4l1.7,1.2l0.5,1.8l-1,1.9l0.2,2.1l0.4,3.8l1.8,1.6l1.9-0.1l1.2,1.7l1.9,0.2l2.3,3.1l4.1,2.1l1.3,1.5l0.6,3.6l-45.8,3
		l-1.2-20l-0.3-1.7l-2.4-1.8l-0.7-1v-0.9l1.1-1l0.7-0.8L265.3,76.5L265.3,76.5z"/>
</a>
<a xlink:href="https://inkanafurniture.webflow.io/regions/oklahoma" >
	<path class="st0" d="M237.3,217l2.6,2l1.2,0.8l0.7-0.3l0.2-1l0.7,1h1.2v-0.8l1,0.5l0.7,0.2l-0.1,2.2l2.3-0.1l1.7,0.6l2.2,0.2
		l1.4,1.1l1.1-1.2l2.1,0.2l1.3,1.7l0.6,0.1v1.1l1.3,0.4l1.3-1.2l1.2,0.3h1.3l0.6,1.3l3.6,1l0.9-0.5l0.7-2.4h0.7l0.8,1.1l2.2,0.3
		l1.9,0.5l2,0.6l1-0.6l0.3-1.4l2.5-0.1l1,0.5l1.5-1.3h0.6l0.5,0.9l2.3-0.1l0.8-1.2l1.1,0.2l1.2,1.3l2,1l1.6,0.4l0.7,0.3l-1.1-20.4
		l-1.1-6.1l-0.3-5l-1-3.6l-0.6-4.6l-0.1-1.7l-7.1,0.5l-26,1.1l-25.6,0.1l-13.8,0l-9.3-0.4l-0.2,6.2h11.7l18,0.3l-0.6,13.8l0.5,9
		L237.3,217z"/>
</a>
<a xlink:href="https://inkanafurniture.webflow.io/regions/texas" >
	<path class="st0" d="M207.6,192.7h12.2l17.6-0.3l-0.6,13.2l0.4,10.2l0.1,1.2l2.6,2l1.2,0.8l0.7-0.3l0.2-1l0.7,1h1.2v-0.8l1,0.5
		l0.7,0.2l-0.1,2.2l2.3-0.1l1.7,0.6l2.2,0.2l1.4,1.1l1.1-1.2l2.1,0.2l1.3,1.7l0.6,0.1v1.1l1.3,0.4l1.3-1.2l1.2,0.3h1.3l0.6,1.3
		l3.6,1l0.9-0.5l0.7-2.4h0.2h0.5l0.8,1.1l2.2,0.3l1.9,0.5l2,0.6l1-0.6l0.3-1.4l2.5-0.1l1,0.5l1.5-1.3h0.6l0.5,0.9l2.3-0.1l0.8-1.2
		l1.1,0.2l1.2,1.3l2,1l1.6,0.4l0.9,0.4l1.4,1l1.7-0.8l1.6,0.6l0.5,3.4l0.3,5.4l0.7,5.3l0.5,2l1.6,2.4l0.7,2.7l2.5,3l0.2,1.8l0.4,0.4
		l-0.2,4.7l-1.5,2.9l0.9,1.2L305,264l-0.2,4.2l-0.8,1.9l0.3,2l-3.2,1.1l-5.4,2.8l-0.5,1.1l-1.4,1.2l-1.1,0.9l-0.7,0.5l-3,3.2l0,0
		l-7,0.1l-3.3,3.8l-0.8,2.6l-4.5,1.6l0.3,1.4l-1.9,0.5l-2,3.2l-2.3,0.3l-0.5,1.1l1.3,1l-0.7,3.1l-1.1,4.8l-0.3,2.6l0.5,1.3l1.2,3.8
		l0.7,3.4l1.1,1.5l-0.5,0.8l-0.2,2.8l-3.3-1.5c-1.6-0.2-4-0.6-5.4-0.9c-3.7-0.8-7.6-3.7-11.9-2.4l-1-5.2l-0.9-3.6l-1.9-1l-0.4-1.2
		l0.3-0.4l0.1-1.9l-0.7-0.3l-0.4-0.5l0.6-2.5l-1-1.2l-1.9-0.6l-2-2.3l-2.2-3.6l-2.4-1.3v-1.1l-3.4-6.7l-0.6-2.3l-1.1-1l-0.1-0.8
		l-3.5-2.8l-1.5-1.6v-0.6l-1.5-1.1l-3.9-0.4l-4.2-0.1l-1.8-1.2l-2.5,1.1l-2,0.9l-1.2,1.9l-0.4,2.1l-2.3,3.6l-1.3,1.4l-1.5-0.5
		l-1-0.6l-1.1-0.3l-2.3-1.2v-0.4l-1.1-1l-3-1l-2-4l-1.3-2.1c-0.2-4.2-1.2-6.5-0.8-10.6l-5.4-0.1l-0.7-1.1l-2.9-1l-0.8-0.9l-4.2-4.2
		l-0.8-1.8l-2.7-1.1l-0.9-2.4l-1.5-1.6l-1.1-0.2l-0.5-2.6l4.5,0.2l16.5,0.7l16.4,0.1l0.7-11l0.6-31.2l0.4-10.6L207.6,192.7
		L207.6,192.7z"/>
</a>
<a xlink:href="https://inkanafurniture.webflow.io/regions/new-mexico" >
	<path class="st0" d="M206.8,193l0.8-0.3l0.2-6.2l-59-2.9l-6.4,68l8.8,0.7l0.4-5.7l16.6,0.7l-0.6-2.6l5.6,0.3l15.5,0.7l16.4,0.1
		l0.7-11l0.6-31.1L206.8,193z"/>
</a>
<a xlink:href="https://inkanafurniture.webflow.io/regions/kansas" >
	<path class="st0" d="M252.8,149.1l20.7-0.6l6.6-0.2l1.8,1.4l1.2,0.1l0.9,0.5l0.1,1.7l-1,1l-0.2,1.2l1.3,1.9l1.5,1.6l1.5,1l1.1,6.5
		l1.3,20l-7.1,0.5l-26,1.1l-25.2,0.1l-14.2,0l0.2-36.5l12.6-0.2L252.8,149.1z"/>
</a>
<a xlink:href="https://inkanafurniture.webflow.io/regions/nebraska" >
	<path class="st0" d="M229.9,150.2l-12.6,0.2v-12l-18.3-0.7l1.2-24.8l8.8,0.1l11.4,0.1l10.1,0.1l13.5-0.1l6.1-0.6l1.2,1.2l2.8,1.5
		l0.7,0.5l2.4-0.9l2.2-0.4l1.5-0.2l1.1,0.7l2.3,0.8l1.7,0.8l0.3,0.9l0.6,1.1l1-0.1h0.5l0.6,2.6l1.9,4.7l0.4,2.1l1.5,2l0.5,2.8l1,2.3
		l0.3,3.6l2.1,4.3l-0.1,1.3l1.9,2.3l1.6,1.9l-2.7,0.1l-24.6,0.7L229.9,150.2z"/>
</a>
<a xlink:href="https://inkanafurniture.webflow.io/regions/south-dakota" >
	<path class="st0" d="M266.4,105.5l1.8-0.1l-0.2-2.8l-1.1-16.9l-0.5-2.1l-2.4-1.7l-0.6-0.9l-0.1-0.9l1.1-0.9l0.8-1l0.1-1.5
		l-32.9,0.8l-31-0.3l-1.2,35.8l8.3,0.1l11.3,0.1h10h13.5l6.8-0.6l1.2,1.2l3,1.7l0.5,0.4l2.5-0.9l3.7-0.5l1,0.7l2.4,0.8l1.7,0.8
		l0.3,0.8l0.7,1.2l1.3-0.2v-0.3l-1.8-2.6l0.9-2.7l0.7-3.3l-1.6-1.1L266,107L266.4,105.5z"/>
</a>
<a xlink:href="https://inkanafurniture.webflow.io/regions/north-dakota" >
	<path class="st0" d="M259.1,44.3l0.2-2.2l-1.2-3l-16.2,0.5l-10.5,0.2h-15l-13-0.5l-2,37.8l31.1,0.3l32.8-0.9l-0.6-4.7l-1.1-3.8
		l-1.4-7.2l-0.6-6.1l-1.1-1.7l-1.1-2.9L259.1,44.3z"/>
</a>
<a xlink:href="https://inkanafurniture.webflow.io/regions/wyoming" >
	<path class="st0" d="M199.2,137.8l1.7-49.9l-60.7-4.4l-5.4,50L199.2,137.8z"/>
</a>
<a xlink:href="https://inkanafurniture.webflow.io/regions/montana" >
	<path class="st0" d="M103.2,41.8l2.2,4.1l-0.6,2.6L106,51l1.8,0.7l2.9,5.9l1.6,1.7l0.3,0.6l2,0.5l0.3,1.1l-3.5,10.1l0.1,1.4
		l1.5,1.7h0.5l2.6-1.8l0.4-0.7l0.9,0.3v3l1.9,7l1.8,1.3l0.5,0.4l1.1,1.2l-0.2,1.9l0.5,1.9l0.7,0.5l1.2-1.3l1.5-0.1l1.9,0.8l1.4-0.6
		l2.3-0.1l2.1,0.8l1.5-0.3l0.2-1.7l1.7-0.5l0.8,0.7l0.4,1.8l0.8,0.4l0.7-6.2l60.7,4.4l2.5-48.6L186,38.5l-16.6-1.1L152.8,36l-18.5-2
		l-10.5-1.4l-18.7-2.9L103.2,41.8z"/>
</a>
<a xlink:href="https://inkanafurniture.webflow.io/regions/colorado" >
	<path class="st0" d="M148.6,184.2l68.5,2.7l0.3-48.5l-64.4-3.8L148.6,184.2z"/>
</a>
<a xlink:href="https://inkanafurniture.webflow.io/regions/idaho" >
	<path class="st0" d="M82.7,111.1l3.4-18.4l0.7-2.4l1.2-3.4l-0.8-1.2l-1.4,0.1l-0.5-0.6l0.2-0.7l0.1-1.7l2.4-3.2l1-0.3l0.6-0.7
		l0.2-1.8l0.5-0.4l2-3.4l2.1-2.5v-2.1l-2-1.4l-1-2.4l5.9-35.9l7.8,1l-1.9,12.1l2.2,4.1l-0.6,2.6L106,51l1.8,0.7l2.9,5.9l1.6,1.7
		l0.3,0.6l2,0.5l0.3,1.1l-3.5,10.1l0.1,1.4l1.5,1.7h0.5l2.6-1.8l0.4-0.7l0.9,0.3v3l1.9,7l1.8,1.3l0.5,0.4l1.1,1.2l-0.2,1.9l0.5,1.9
		l0.7,0.5l1.2-1.3l1.5-0.1l1.9,0.8l1.4-0.6l2.3-0.1l2.1,0.8l1.5-0.3l0.2-1.7l1.7-0.5l0.8,0.7l0.4,1.8l0.8,0.4l-3.2,30.3
		C136.7,120,86.7,111.7,82.7,111.1z"/>
</a>
<a xlink:href="https://inkanafurniture.webflow.io/regions/utah" >
	<path class="st0" d="M148.4,134.3l4.7,0.2l-4.4,49.8l-47.6-4.2l8.5-64.6l26.7,4.4l-0.6,6l-0.9,7.4l4.4,0.3L148.4,134.3z"/>
</a>
<a xlink:href="https://inkanafurniture.webflow.io/regions/arizona" >
	<path class="st0" d="M94,227.3c0.2,0.5-5.4,5.3,1.7,8.8l0,0l7.1,3.9l8.6,4.4l9.8,5.1l7,1l14.2,0.8l6.3-67.2l-47.6-4.2l-1.3,9.3
		l-0.9,0.1l-0.9,1.5h-1.4l-0.8-1.5l-1.6-0.1l-0.5-0.6h-0.5l-0.5,0.3l-1.1,0.6l-0.1,3.8v1.1l0.1,7.2l-0.9,1l-0.2,1.9l1.8,2.9l0.9,3.2
		l0.5,0.6l0.6,0.3v1.3l-0.9,0.8l-1.9,1.1l-1,1.1l-0.7,2.1l-0.2,2.8l-1.5,1.6l-1.1,0.4l0.1,0.3l-0.2,1.2l0.3,0.4l2,0.2l-0.2,1.7
		l-0.8,1.2L94,227.3"/>
</a>
<a xlink:href="https://inkanafurniture.webflow.io/regions/nevada" >
	<path class="st0" d="M93.8,188.8h-0.6l-1.5,1v3.8v3.2l0.1,5.1l-0.9,1l-1.4-0.5l-42-56.4l8.8-40.2l26.4,5.4l26.9,4.4l-9.7,73.6
		l-1,0.2l-0.8,1.4l-1.3,0.1l-0.9-1.5l-1.5-0.1L93.8,188.8z"/>
</a>
<a xlink:href="https://inkanafurniture.webflow.io/regions/oregon" >
	<path class="st0" d="M85.6,84.5l0.2-1.8l2.4-3.2l1-0.7l0.6-0.7l0.7-2l2.1-3.3l1.9-2.3v-1.9l-1.9-1.3l-1.1-2.5L84.2,63l-8.6-1.5
		L66.9,62l-0.3-0.8l-3,1.3L61,62.4l-1.4-0.8L58.9,62h-2.7l-1-0.7l-3-1l-0.4,0.1l-2.5-0.7l-1,1.1h-3.5l-3.5-2.1l0.4-0.5l-0.1-4.4
		l-1.4-2.1l-2.3-0.2L37.3,50L36,49.8l-3.2,1.3l-1.1,3.7l-1.5,5.7l-1.6,3.7l-5.1,6.6l-2.8,8.6l-6,11.2L14.1,97l68.6,14.1l3.7-18.7
		l0.5-2.4l1.2-3.2l-0.4-0.6h-1.4l-0.8-0.9L85.6,84.5z"/>
</a>
<a xlink:href="https://inkanafurniture.webflow.io/regions/wa" >
	<path class="st0" d="M56.3,20.7l2.8,0.6l4.9,0.8l11.5,2.6l13.1,2.5l8.7,1.4l-5.9,36L84.3,63l-8.9-1.5L66.9,62l-0.3-0.7l-3.1,1.4
		l-2.6-0.3l-1.3-0.8L58.9,62l-2.7,0l-1-0.7l-3-1l-0.4,0.1l-2.5-0.7l-1,1.1h-3.5l-3.5-2.1l0.4-0.5l-0.2-4.3l-1.4-2.1l-2.3-0.2
		L37.3,50L36,49.8l-2,0.8l-1.4-1.7l0.1-1.6l1.5-0.3l0.8-2.3l-1.5-0.6V42l2.4-0.5L34.3,40l-1-3.9l0.3-1.6L33.4,30
		c1.3-8.8,1.7-10.5,10.9-6.6c0,0,1.7,1.2,1.9,2.5c0.1,1.2-2.4,6.9-2.4,6.9s0.7,4.6,2.4,6c1.6,1.3,3.5-0.6,4.1-1.3s5.6-6.1,5.6-6.1
		L56.3,20.7L56.3,20.7z"/>
</a>
<a xlink:href="https://inkanafurniture.webflow.io/regions/california" >
	<path class="st0" d="M86,228.1l2.2-0.4l0.8-1.2l0.2-1.7l-2-0.2l-0.3-0.4l0.2-1.2l-0.1-0.3l1.1-0.4l1.6-1.7l0.2-2.8l0.7-1.9l1-1.3
		l1.9-1l0.9-0.9v-1.2l-0.6-0.3l-0.6-0.6l-0.8-3.2l-1.7-2.6l0.2-1.9l-1.4-0.5l-42-56.5l8.8-40.2L14.1,97l-3.3,11.2
		c-0.1,11.1-1.7,25.4,4.8,35l1.4,2.7l0.8,2.2l-0.1,1.8l-0.2,0.3l0.1,1.2l3.4,3.4l-0.2,1.4l-0.3,1.3l-0.3,1.1l0.3,4.6l1.3,2l1.2,1.4
		l1.6,0.2l0.6,1.5l-0.5,2l-1.1,1H23l-0.3,2.2l0.4,1.6l2,2.4l1.1,2.9l1,2.6l0.8,1.7c13.7,16,38.3,21.6,32.9,35.4
		c0.2,3.2,3.5,6.5,6.3,6.8l11.2,1L86,228.1L86,228.1z"/>
</a>
<a xlink:href="https://inkanafurniture.webflow.io/regions/virginia" >
	<path class="st0" d="M473.2,158.8l0.6-4.5l-6.9-0.5l-6.4-4.3c0,0,5.9,1.1,6.4,1.5s4-0.1,4-0.1l-1.1-4.5l-13.4-7l1-4.3l-6.7-5.3
		l-0.1-0.7l-4.9-0.4l1.9,1.6l-0.3,3.1l-3.4-1.3l-2.4-0.8l0.1,2.9l-1.4,3.2l-1.4,1.4l-0.6,1.6l-1.5,0.4l-0.9,4.2l-2.2,0.3l-1.4-1.3
		l-0.6,0.3l-0.2,3.1l-3.2,8.3l0.5,0.6l-0.1,1.1l-1.5,2.3l-1-0.3l-1.6,1.3l-1.5-0.2l-1,2.6l-2.2,0.9l-1.4-0.6l-2.6,1.5l-2.1-0.4
		l-0.7-0.6l-1.3-1.4l-2,2.3l-3.5,4.3l-0.8,1.3v1.2l-5.5,3.4l10.8-2.2l3.9-0.2l1.4-1.2l3.4-0.1l21.6-4L473.2,158.8L473.2,158.8z"/>
</a>
<a xlink:href="https://inkanafurniture.webflow.io/regions/nj" >
	<path class="st0" d="M471.1,98.8c0,0,0,0.2-0.1,1s-0.9,1.7-1.5,2.3c-0.6,0.6-0.7,1.4-0.8,1.8c0,0.4,0.1,1.1,0.2,1.6
		s0.4,0.9,0.8,1.5c0.4,0.7,4.4,3.6,4.4,3.6l-7.4,9.7l13.2,6.5l4.3-14.9c0,0-3.9-3.7-3.2-5.2c0.8-1.5,2.8-3.7,2.8-3.7l-1.1-3.3
		L471.1,98.8L471.1,98.8z M548.1,160.4c-2.5,0-4.4,2-4.4,4.4v11.7c0,2.5,2,4.4,4.4,4.4h18c2.5,0,4.4-2,4.4-4.4v-11.7
		c0-2.5-2-4.4-4.4-4.4H548.1z"/>
</a>
<a xlink:href="https://inkanafurniture.webflow.io/regions/ri" >
	<path class="st0" d="M499.7,81.8l-3.4,2.5l0.8,5.3l3.8-2.9l1.8-3L499.7,81.8z M512.6,160.4c-2.5,0-4.5,2-4.5,4.4v11.7
		c0,2.5,2,4.4,4.5,4.4h18c2.5,0,4.4-2,4.4-4.4v-11.7c0-2.5-2-4.4-4.4-4.4H512.6z"/>
</a>
<a xlink:href="https://inkanafurniture.webflow.io/regions/de" >
	<path class="st0" d="M471.7,122.8l0.7,7.6l2.1,6.8l3.3,0.3l-0.3-6l-4.6-8.1L471.7,122.8z M548.1,188.1c-2.5,0-4.4,2-4.4,4.4v11.7
		c0,2.5,2,4.4,4.4,4.4h18c2.5,0,4.4-2,4.4-4.4v-11.7c0-2.5-2-4.4-4.4-4.4H548.1z"/>
</a>
<a xlink:href="https://inkanafurniture.webflow.io/regions/md" >
	<path class="st0" d="M466.7,120.3l-3.8,1l-21.7,5.6l-11,2.9l1.3,6.1l2.3-3.3l1.4-0.4l0.8-0.9l0.9-1.5l0.8,0.3l1.6-0.3l2.5-2.2
		l3.9,1.1l4.9,0.4l0.1,0.7l6.7,5.3l-1,4.3l10.2,1.2l-2.5-10.9l2.2-5.2c0,0.9,0,1.8-0.1,2.2c-0.2,1,0.1,5.3,0.1,5.3l5.9,9.6l5.8,3.7
		l-0.2-7.8l-3.3-0.3l-2.1-6.8l-0.7-7.6l-3.2-1.6L466.7,120.3z M512.6,188.1c-2.5,0-4.5,2-4.5,4.4v11.7c0,2.5,2,4.4,4.5,4.4h18
		c2.5,0,4.4-2,4.4-4.4v-11.7c0-2.5-2-4.4-4.4-4.4H512.6z"/>
</a>
<a xlink:href="https://inkanafurniture.webflow.io/regions/new-hampshire" >
	<path class="st0" d="M490.9,42.8l-5.4,0.1v5.4l1,21.8l1.2,7.1l2.6-0.2l9.5-3.1l0.6-11.1l-1.3-0.5l-0.3-1.6l-2-0.5l-0.4-1.8
		L490.9,42.8L490.9,42.8z M548.1,105c-2.5,0-4.4,2-4.4,4.5v11.7c0,2.5,2,4.4,4.4,4.4h18c2.5,0,4.4-2,4.4-4.4v-11.7
		c0-2.5-2-4.5-4.4-4.5H548.1z"/>
</a>
<a xlink:href="https://inkanafurniture.webflow.io/regions/ct" >
	<path class="st0" d="M496.2,83.6l-12.7,2.1l1.3,8.5l7.3-1.7c0,0,4.8-2.5,4.9-3C497.2,89.1,496.2,83.6,496.2,83.6z M548.1,131.9
		c-2.5,0-4.4,2-4.4,4.4V148c0,2.5,2,4.5,4.4,4.5h18c2.5,0,4.4-2,4.4-4.5v-11.7c0-2.5-2-4.4-4.4-4.4H548.1z"/>
</a>
<a xlink:href="https://inkanafurniture.webflow.io/regions/vermont" >
	<path class="st0" d="M485.6,48.3l-12.2,5.6l1.9,2l1.4,12.9c0,0,0.9,0.9,2.4,2.5c1.5,1.5,2.3,2.7,2.8,3.8c0.5,1.1,0.3,2.4,0.3,2.4
		l5.5-0.2l-1.2-7.1L485.6,48.3L485.6,48.3z M512.6,105c-2.5,0-4.4,2-4.4,4.4v11.7c0,2.5,2,4.5,4.4,4.5h18c2.5,0,4.4-2,4.4-4.5v-11.7
		c0-2.5-2-4.4-4.4-4.4H512.6z"/>
</a>
<a xlink:href="ma" >
	<path class="st0" d="M499.8,73.9l-9.5,3.1l-8,0.7l1.2,8.1l12.7-2.1l0.1,0.7l3.4-2.5l3,1.9h5.3l2-2.2l0.2-5.5l-4.2,3.7L499.8,73.9
		L499.8,73.9z M512.6,132c-2.5,0-4.5,2-4.5,4.4v11.7c0,2.5,2,4.4,4.5,4.4h18c2.5,0,4.4-2,4.4-4.4v-11.7c0-2.5-2-4.4-4.4-4.4H512.6z"
		/>
</a>
<a xlink:href="https://inkanafurniture.webflow.io/regions/pennsylvania" >
	<path class="st0" d="M419.9,131.5l-2.5-10.7l-1.6-5l-1.8-10.7l7.1-6.5l1.5,2.5l2.8,0.4l38-9.3c0,0,0.6,0.9,2.2,1.2
		c1.5,0.3,2.2,2.1,2.2,2.8c0,0.7-0.4,2.2-0.4,2.2l3.7,0.4c0,0,0.5,1.4-1.2,3c-1.7,1.5-1.2,3.9-0.5,4.8s4.7,4,4.7,4l-7.4,9.7
		l-36.5,9.5l-7.7,1.1L419.9,131.5z"/>
</a>
<a xlink:href="https://inkanafurniture.webflow.io/regions/new-york" >
	<path class="st0" d="M484.6,99l9.1-4.7c0,0-4,4.3-5.4,5.6s-4.4,3.4-4.4,3.4l-1.1-3.3l-11.7-1l-3.9-0.3c0,0,0.4-1.8,0.4-2.2
		c0-0.3-0.2-1.4-0.8-1.9c-0.5-0.5-1.1-0.7-1.6-0.9c-0.5-0.2-1-0.4-1.3-0.6s-0.6-0.6-0.6-0.6l-11.7,2.8l-16.2,3.9l-10.2,2.5l-2.8-0.4
		l-1.5-2.5L426,90l0.8-4.9c0,0,4.3-3.4,5-3.4s2.3,0.7,4,0.7s2.9,0.9,4,1.1s8.1-6.2,8.1-6.2l3.4-2l-4.3-4c0,0,2.8-5.1,3.5-6.6
		c1-2.3,2.1-4.4,2.1-4.4s2.1-1.5,4-2.5c2.5-1.2,5.2-2,5.2-2l11.1-2l2.2,2.3l1.4,12.9c0,0,2.7,2.6,4.1,4.4c1.4,1.9,1.4,3.3,1.4,4
		s2.6,17,2.6,17l-1.3,3.4L484.6,99z"/>
</a>
<a xlink:href="https://inkanafurniture.webflow.io/regions/dc" >
	<path class="st0" d="M512.6,214.9h18c2.5,0,4.4,2,4.4,4.4V231c0,2.5-2,4.4-4.4,4.4h-18c-2.5,0-4.4-2-4.4-4.4v-11.7
		C508.2,216.9,510.2,214.9,512.6,214.9L512.6,214.9z"/>
</a>
<path class="st1" d="M500.3,34.7l-1.6,6.1h0.7l1-3.8l1.7,4l1.7-4l1,3.7h0.8l-1.6-6.1l-1.8,4.3L500.3,34.7z M506.3,34.9v5.8h3.3V40
	h-2.5v-2h2.5v-0.8h-2.5v-1.4h2.5V35L506.3,34.9L506.3,34.9z M67.1,40.2l-1.9,4.4l-1.8-4.2h-0.8l2.6,6l1.9-4.3l1.9,4.3l2.6-6h-0.8
	L69,44.6L67.1,40.2z M74,40.2l-2.8,6.1H72l0.7-1.5h2.5l0.7,1.5h0.8L74,40.2z M74,42.1l0.9,2.1H73L74,42.1z M228.4,56.3v6.1h0.8v-4.2
	l4.3,4.4v-6.1h-0.8v4.2L228.4,56.3z M234.8,56.6v5.8h1.4c1.1,0,1.9-0.3,2.5-0.9c0.6-0.6,0.8-1.3,0.8-2.1s-0.3-1.4-0.8-2
	s-1.4-0.9-2.5-0.9h-1.4V56.6z M235.6,57.3h0.4c0.6,0,1.1,0.1,1.4,0.2c0.4,0.1,0.7,0.4,0.9,0.7c0.3,0.4,0.4,0.8,0.4,1.2
	s-0.1,0.7-0.3,1s-0.4,0.5-0.6,0.7c-0.3,0.2-0.6,0.3-0.9,0.3c-0.3,0.1-0.7,0.1-1.3,0.1l0,0L235.6,57.3L235.6,57.3z M156.3,58.4
	l-1.6,6.1h0.8l1-3.7l1.7,4l1.7-4l1,3.7h0.8l-1.6-6.1l-1.8,4.3L156.3,58.4z M162,58.6v0.8h1.4v5.1h0.8v-5.1h1.4v-0.8L162,58.6z
	 M275.5,67.5l-1.6,6.1h0.8l1-3.7l1.7,4l1.7-4l1,3.7h0.8l-1.6-6.1l-1.8,4.3L275.5,67.5z M281.5,67.5v6.1h0.8v-4.2l4.3,4.4v-6.1h-0.8
	V72L281.5,67.5z M456.1,75.8v6.1h0.8v-4.2l4.3,4.4V76h-0.8v4.2L456.1,75.8z M462.1,76l1.9,3.2v2.7h0.8v-2.7l1.9-3.2h-0.9l-1.4,2.4
	L463,76H462.1z M53.2,81.1c-0.9,0-1.6,0.3-2.3,0.9c-0.6,0.6-1,1.3-1,2.2c0,0.9,0.3,1.6,0.9,2.2c0.6,0.6,1.4,0.9,2.3,0.9
	c0.9,0,1.7-0.3,2.3-0.9s1-1.3,1-2.2c0-0.8-0.3-1.6-1-2.2C54.8,81.4,54,81.1,53.2,81.1z M57.6,81.3v5.9h0.8v-2.4h0.2l1.6,2.4h0.9
	l-1.7-2.5c0.5-0.1,1-0.3,1.2-0.6c0.3-0.3,0.4-0.7,0.4-1.1c0-0.5-0.2-0.9-0.6-1.2c-0.4-0.3-0.9-0.5-1.6-0.5
	C58.8,81.3,57.6,81.3,57.6,81.3z M53.1,81.9c0.7,0,1.3,0.2,1.7,0.7c0.5,0.4,0.7,1,0.7,1.7c0,0.6-0.2,1.1-0.7,1.6s-1,0.7-1.6,0.7
	c-0.7,0-1.2-0.2-1.7-0.7c-0.5-0.4-0.7-1-0.7-1.6s0.2-1.2,0.7-1.6C51.9,82.1,52.5,81.9,53.1,81.9z M58.4,82c0.4,0,0.8,0,1,0.1
	s0.4,0.2,0.5,0.3c0.1,0.2,0.2,0.3,0.2,0.6c0,0.7-0.6,1.1-1.8,1L58.4,82L58.4,82z M323,86.4l-1.9,4.4l-1.8-4.1h-0.8l2.6,6l1.9-4.3
	l1.9,4.3l2.6-6h-0.8l-1.8,4.1L323,86.4z M328.3,86.6v5.9h0.8v-5.9H328.3z M217.4,92.9c-0.5,0-0.9,0.1-1.2,0.4s-0.5,0.7-0.5,1.1
	c0,0.2,0,0.3,0.1,0.5s0.2,0.3,0.3,0.5s0.3,0.3,0.4,0.4c0.2,0.1,0.5,0.2,0.8,0.4c0.3,0.1,0.5,0.3,0.7,0.4s0.3,0.2,0.4,0.4
	c0.1,0.2,0.1,0.3,0.1,0.5c0,0.3-0.1,0.5-0.3,0.7s-0.4,0.2-0.7,0.2c-0.6,0-1.1-0.3-1.3-1l-0.8,0.2c0.2,0.5,0.5,0.9,0.9,1.2
	c0.4,0.3,0.8,0.4,1.3,0.4s0.9-0.2,1.3-0.5c0.4-0.3,0.5-0.7,0.5-1.2c0-0.2,0-0.4-0.1-0.6s-0.2-0.4-0.3-0.5c-0.1-0.2-0.3-0.3-0.5-0.5
	c-0.2-0.1-0.5-0.3-0.9-0.4c-0.4-0.2-0.6-0.3-0.8-0.5c-0.2-0.1-0.2-0.3-0.2-0.5s0.1-0.4,0.3-0.5s0.4-0.2,0.7-0.2s0.5,0,0.6,0.1
	s0.3,0.2,0.4,0.4l0.7-0.5c-0.2-0.3-0.5-0.5-0.8-0.6C218,93,217.7,92.9,217.4,92.9L217.4,92.9z M220.3,93.1V99h1.4
	c1.1,0,1.9-0.3,2.5-0.9s0.8-1.3,0.8-2c0-0.8-0.3-1.4-0.8-2s-1.4-0.9-2.5-0.9L220.3,93.1L220.3,93.1z M372.7,93.7l-1.6,6.1h0.8l1-3.7
	l1.7,4l1.7-4l1,3.7h0.8l-1.6-6.1l-1.8,4.3L372.7,93.7z M221.1,93.9h0.4c0.6,0,1.1,0.1,1.4,0.2c0.4,0.1,0.7,0.4,0.9,0.7
	c0.3,0.4,0.4,0.8,0.4,1.2c0,0.4-0.1,0.7-0.2,1c-0.2,0.3-0.4,0.5-0.7,0.7s-0.5,0.3-0.8,0.4s-0.7,0.1-1.3,0.1h-0.1L221.1,93.9
	L221.1,93.9L221.1,93.9z M378.7,93.9v5.8h0.8v-5.8H378.7z M106.9,95.6v5.9h0.8v-5.9H106.9z M109,95.6v5.9h1.4c1.1,0,1.9-0.3,2.5-0.9
	s0.8-1.3,0.8-2c0-0.8-0.3-1.4-0.8-2s-1.4-0.9-2.5-0.9L109,95.6L109,95.6z M109.7,96.3h0.4c0.6,0,1.1,0.1,1.4,0.2
	c0.4,0.1,0.7,0.4,0.9,0.8c0.3,0.4,0.4,0.8,0.4,1.2c0,0.4-0.1,0.7-0.2,1c-0.2,0.3-0.4,0.5-0.6,0.7c-0.3,0.2-0.5,0.3-0.8,0.4
	s-0.7,0.1-1.3,0.1h-0.1L109.7,96.3L109.7,96.3z M516.6,112.5l2.2,5.7h0.8l2.3-5.7h-0.8l-1.6,4.2c-0.1,0.3-0.2,0.6-0.3,0.9
	c-0.1-0.3-0.2-0.6-0.3-0.9l-1.5-4.2H516.6L516.6,112.5z M522.1,112.5v0.7h1.9v5.1h0.7v-5.1h1.9v-0.7H522.1z M551.9,112.5v5.7h0.7
	v-4.5l3,4.5h0.8v-5.7h-0.7v4.5l-3-4.5H551.9z M557.7,112.5v5.7h0.8v-2.7h3v2.7h0.7v-5.7h-0.7v2.3h-3v-2.3H557.7z M444.4,108.9
	l-2.8,6.1h0.8l0.7-1.5h2.5l0.7,1.5h0.8L444.4,108.9z M438.4,109.1v5.9h0.8v-2.4c0.9,0,1.5-0.2,1.9-0.5s0.7-0.8,0.7-1.3
	s-0.2-0.9-0.6-1.2c-0.4-0.3-0.9-0.5-1.6-0.5H438.4z M439.2,109.8c0.7,0,1.2,0.1,1.4,0.3c0.2,0.2,0.3,0.4,0.3,0.7
	c0,0.4-0.1,0.6-0.4,0.8c-0.3,0.2-0.7,0.2-1.3,0.3V109.8L439.2,109.8z M165.6,110.3l-1.9,4.3l-1.8-4.1h-0.8l2.6,6l1.9-4.3l1.9,4.3
	l2.6-6h-0.8l-1.8,4.1L165.6,110.3z M170.6,110.5l1.9,3.2v2.7h0.8v-2.7l1.9-3.2h-0.9l-1.4,2.4l-1.4-2.4H170.6z M444.4,110.7l1,2.1
	h-1.9L444.4,110.7z M295.2,118.1l-2.8,6.1h0.8l0.7-1.5h2.5l0.7,1.5h0.8L295.2,118.1z M291,118.3v5.8h0.8v-5.8H291z M295.2,119.9
	l0.9,2.1h-1.9L295.2,119.9z M392.6,127.7c-0.9,0-1.7,0.3-2.3,0.9c-0.6,0.6-0.9,1.3-0.9,2.2s0.3,1.6,0.9,2.3c0.6,0.6,1.4,0.9,2.3,0.9
	s1.7-0.3,2.3-0.9c0.6-0.6,0.9-1.4,0.9-2.3c0-0.8-0.3-1.5-0.9-2.2C394.2,128,393.5,127.7,392.6,127.7z M396.9,127.9v5.8h0.8V131h2.8
	v2.8h0.8V128h-0.8v2.2h-2.8V128L396.9,127.9L396.9,127.9z M392.5,128.6c0.7,0,1.3,0.2,1.7,0.7c0.5,0.4,0.7,1,0.7,1.6
	s-0.2,1.2-0.7,1.6c-0.5,0.5-1,0.7-1.6,0.7c-0.7,0-1.3-0.2-1.8-0.7c-0.5-0.4-0.7-1-0.7-1.6s0.2-1.1,0.7-1.6
	C391.3,128.8,391.9,128.6,392.5,128.6z M223.8,129.4v6.1h0.8v-4.2l4.3,4.4v-6.1h-0.8v4.2L223.8,129.4z M230.1,129.6v5.8h3.2v-0.8
	h-2.4v-2h2.4v-0.8h-2.4v-1.4h2.4v-0.8H230.1z M67.4,132.3v6.1h0.8v-4.2l4.3,4.4v-6.1h-0.8v4.2L67.4,132.3z M73.2,132.6l2.7,6l2.7-6
	h-0.8l-1.9,4.2l-1.8-4.2H73.2z M554.7,139.3c-0.5,0-1,0.1-1.4,0.3s-0.7,0.6-1,1c-0.2,0.4-0.3,1-0.3,1.6c0,0.5,0.1,1.1,0.3,1.5
	c0.2,0.5,0.5,0.8,0.9,1.1s0.9,0.4,1.5,0.4s1.1-0.1,1.5-0.5c0.4-0.3,0.7-0.8,0.9-1.4l-0.8-0.2c-0.1,0.5-0.3,0.8-0.6,1.1
	c-0.3,0.2-0.6,0.3-1.1,0.3c-0.3,0-0.7-0.1-1-0.2c-0.3-0.2-0.5-0.4-0.7-0.8c-0.1-0.4-0.2-0.8-0.2-1.3c0-0.4,0.1-0.7,0.2-1.1
	c0.1-0.4,0.3-0.6,0.6-0.8s0.7-0.3,1.1-0.3c0.4,0,0.7,0.1,0.9,0.3c0.3,0.2,0.5,0.5,0.6,0.9l0.8-0.2c-0.2-0.5-0.4-0.9-0.8-1.2
	C555.8,139.4,555.3,139.3,554.7,139.3L554.7,139.3z M515.9,139.4v5.7h0.8v-4.9l1.7,4.9h0.7l1.7-4.8v4.8h0.7v-5.7h-1l-1.3,4
	c-0.1,0.4-0.2,0.7-0.3,0.9c-0.1-0.2-0.2-0.5-0.3-0.8l-1.3-4.1L515.9,139.4L515.9,139.4z M524.2,139.4l-2.2,5.7h0.8l0.6-1.8h2.4
	l0.7,1.8h0.9l-2.3-5.7H524.2z M557.6,139.4v0.7h1.9v5.1h0.8V140h1.9v-0.7L557.6,139.4L557.6,139.4z M524.6,140
	c0.1,0.3,0.2,0.7,0.4,1.2l0.6,1.6h-1.9l0.6-1.7C524.4,140.7,524.5,140.4,524.6,140L524.6,140z M362.3,136v6.1h0.8V138l4.3,4.4v-6.1
	h-0.8v4.2L362.3,136z M360.3,136.3v5.8h0.8v-5.8H360.3z M334.7,142.1v5.8h0.8v-5.8H334.7z M336.9,142.1v5.8h2.7v-0.8h-1.9v-5H336.9z
	 M417.1,145.3l-1.9,4.4l-1.8-4.1h-0.8l2.6,6l1.9-4.3l1.9,4.3l2.6-6h-0.8l-1.8,4.1L417.1,145.3z M421.9,145.6l2.7,6l2.7-6h-0.8
	l-1.8,4.2l-1.8-4.2H421.9z M448.5,149.4l-2.7,6.1h0.8l0.7-1.5h2.5l0.7,1.5h0.8L448.5,149.4z M440.8,149.7l2.7,6l2.7-6h-0.8l-1.9,4.2
	l-1.8-4.2H440.8z M448.5,151.3l0.9,2.1h-1.9L448.5,151.3z M122.8,154v3.5c0,0.8,0.2,1.5,0.7,1.9c0.4,0.4,1,0.6,1.7,0.6
	s1.2-0.2,1.6-0.6c0.4-0.4,0.6-1,0.6-1.7V154h-0.8v3.7c0,0.5-0.1,0.9-0.4,1.1c-0.3,0.3-0.6,0.4-1.1,0.4s-0.8-0.1-1.1-0.4
	c-0.3-0.3-0.4-0.7-0.4-1.2V154H122.8z M128.2,154v0.8h1.4v5.1h0.8v-5.1h1.4V154H128.2z M181.9,159.1c-0.9,0-1.6,0.3-2.3,0.9
	c-0.6,0.6-0.9,1.3-0.9,2.2s0.3,1.6,1,2.3c0.6,0.6,1.4,0.9,2.3,0.9c0.6,0,1.2-0.2,1.7-0.4v-1c-0.6,0.3-1.1,0.5-1.6,0.5
	c-0.7,0-1.3-0.2-1.8-0.7s-0.7-1-0.7-1.6s0.3-1.2,0.7-1.6c0.5-0.4,1-0.7,1.7-0.7c0.5,0,1.1,0.2,1.7,0.5v-0.9
	C183.1,159.3,182.5,159.1,181.9,159.1L181.9,159.1z M187.3,159.1c-0.8,0.1-1.4,0.3-2,0.9c-0.6,0.6-0.9,1.3-0.9,2.2s0.3,1.6,0.9,2.2
	c0.6,0.6,1.4,0.9,2.3,0.9c0.9,0,1.7-0.3,2.3-0.9c0.6-0.6,0.9-1.4,0.9-2.2s-0.3-1.5-0.9-2.2c-0.6-0.6-1.4-0.9-2.2-0.9
	C187.5,159.1,187.4,159.1,187.3,159.1z M45.3,159.4l-2.7,6.1h0.8l0.7-1.5h2.5l0.7,1.5h0.8L45.3,159.4z M40.4,159.5
	c-0.9,0-1.6,0.3-2.3,0.9c-0.6,0.6-0.9,1.3-0.9,2.2s0.3,1.6,0.9,2.2c0.6,0.6,1.4,0.9,2.3,0.9c0.6,0,1.2-0.1,1.7-0.4v-0.9
	c-0.6,0.3-1.1,0.5-1.7,0.5c-0.7,0-1.3-0.2-1.8-0.7c-0.5-0.4-0.7-1-0.7-1.6s0.2-1.2,0.7-1.6c0.5-0.4,1-0.7,1.7-0.7
	c0.5,0,1.1,0.2,1.8,0.5v-0.9C41.6,159.6,41,159.5,40.4,159.5L40.4,159.5z M187.6,159.9c0.7,0,1.3,0.2,1.7,0.7c0.5,0.4,0.7,1,0.7,1.6
	s-0.2,1.1-0.7,1.6s-1,0.7-1.6,0.7c-0.7,0-1.3-0.2-1.8-0.7c-0.5-0.4-0.7-1-0.7-1.6s0.2-1.2,0.7-1.6
	C186.4,160.2,186.9,159.9,187.6,159.9z M302.1,161.1l-1.6,6.1h0.7l1-3.7l1.7,4l1.7-4l1,3.7h0.8l-1.6-6.1l-1.8,4.3L302.1,161.1z
	 M311.2,161.1c-0.9,0-1.6,0.3-2.3,0.9c-0.6,0.6-1,1.3-1,2.2s0.3,1.6,0.9,2.2c0.6,0.6,1.4,0.9,2.3,0.9s1.7-0.3,2.3-0.9
	c0.6-0.6,0.9-1.3,0.9-2.2c0-0.8-0.3-1.6-1-2.2C312.8,161.4,312.1,161.1,311.2,161.1z M45.3,161.2l0.9,2.1h-1.8L45.3,161.2z
	 M552.8,167.8v5.8h0.7v-4.5l3,4.5h0.8v-5.8h-0.7v4.5l-3-4.5H552.8z M560.6,167.8v4c0,0.3,0,0.5-0.1,0.7c-0.1,0.1-0.2,0.3-0.3,0.4
	c-0.1,0.1-0.3,0.1-0.5,0.1c-0.3,0-0.5-0.1-0.6-0.3s-0.2-0.4-0.3-0.9l-0.7,0.1c0,0.6,0.1,1,0.4,1.3c0.3,0.3,0.7,0.4,1.2,0.4
	c0.3,0,0.6-0.1,0.9-0.2c0.3-0.1,0.4-0.3,0.6-0.6c0.1-0.3,0.2-0.6,0.2-1.1v-3.9H560.6L560.6,167.8z M518.3,167.9v5.7h0.8v-2.5h0.9
	c0.2,0,0.3,0,0.4,0c0.1,0,0.2,0.1,0.3,0.1c0.1,0.1,0.3,0.2,0.4,0.4c0.1,0.2,0.3,0.4,0.5,0.8l0.8,1.2h1l-1-1.6
	c-0.2-0.3-0.4-0.5-0.6-0.7c-0.1-0.1-0.3-0.2-0.5-0.3c0.5-0.1,1-0.3,1.2-0.5c0.3-0.3,0.4-0.6,0.4-1c0-0.3-0.1-0.6-0.3-0.9
	c-0.2-0.3-0.4-0.4-0.6-0.5c-0.3-0.1-0.8-0.5-1.2-0.2H518.3L518.3,167.9z M524.2,167.9v5.7h0.8v-5.7H524.2z M311.1,162
	c0.7,0,1.3,0.2,1.7,0.7c0.5,0.4,0.7,1,0.7,1.6s-0.2,1.1-0.7,1.6s-1,0.7-1.6,0.7c-0.7,0-1.2-0.2-1.7-0.7c-0.5-0.4-0.7-1-0.7-1.6
	s0.2-1.2,0.7-1.6C309.9,162.2,310.5,162,311.1,162z M519.1,168.5h1.8c0.4,0,0.7,0.1,0.9,0.2c0.2,0.2,0.3,0.4,0.3,0.7
	c0,0.2-0.1,0.3-0.2,0.5c-0.1,0.2-0.2,0.3-0.4,0.3c-0.2,0.1-0.5,0.1-0.8,0.1h-1.6V168.5L519.1,168.5z M379.8,163.4v5.8h0.8v-2.8
	l2.6,2.8h1l-2.8-3.1l2.8-2.7h-1.1l-2.5,2.4v-2.4H379.8z M384.6,163.4l1.9,3.2v2.7h0.8v-2.7l1.9-3.2h-0.9l-1.4,2.4l-1.4-2.4H384.6z
	 M255.3,163.9c-0.5,0-0.9,0.1-1.2,0.4c-0.3,0.3-0.5,0.6-0.5,1.1c0,0.2,0,0.3,0.1,0.5s0.2,0.3,0.3,0.4c0.1,0.2,0.3,0.3,0.5,0.4
	c0.2,0.1,0.4,0.2,0.8,0.3c0.3,0.1,0.6,0.3,0.7,0.4c0.2,0.1,0.3,0.2,0.4,0.4s0.2,0.3,0.2,0.5c0,0.3-0.1,0.5-0.3,0.7
	c-0.2,0.2-0.5,0.3-0.8,0.3c-0.6,0-1-0.3-1.3-1l-0.8,0.2c0.2,0.5,0.5,0.9,0.9,1.2s0.8,0.4,1.3,0.4s1-0.2,1.3-0.5
	c0.4-0.3,0.5-0.8,0.5-1.3c0-0.2-0.1-0.4-0.1-0.6c-0.1-0.2-0.2-0.4-0.3-0.5c-0.1-0.2-0.3-0.3-0.5-0.5c-0.2-0.1-0.5-0.3-0.9-0.4
	c-0.4-0.2-0.7-0.3-0.8-0.5c-0.2-0.1-0.2-0.3-0.2-0.5s0.1-0.4,0.3-0.5s0.4-0.2,0.7-0.2s0.5,0,0.6,0.1s0.3,0.2,0.5,0.4l0.7-0.5
	c-0.2-0.3-0.5-0.5-0.8-0.6C255.9,164,255.6,163.9,255.3,163.9L255.3,163.9z M248.3,164.1v5.8h0.8v-2.8l2.6,2.8h1l-2.9-3.1l2.8-2.7
	h-1.1l-2.5,2.4v-2.4H248.3z M437.9,175.6v6.1h0.8v-4.2l4.3,4.4v-6.1h-0.8v4.2L437.9,175.6z M447.2,175.6c-0.9,0-1.7,0.3-2.3,0.9
	c-0.6,0.6-1,1.3-1,2.2s0.3,1.6,1,2.2c0.6,0.6,1.4,0.9,2.3,0.9c0.6,0,1.2-0.2,1.7-0.4v-0.9c-0.6,0.3-1.1,0.5-1.7,0.5
	c-0.7,0-1.3-0.2-1.8-0.6c-0.5-0.4-0.7-1-0.7-1.7c0-0.6,0.3-1.2,0.7-1.6c0.5-0.4,1-0.7,1.7-0.7c0.5,0,1.1,0.2,1.7,0.5V176
	C448.3,175.7,447.8,175.6,447.2,175.6L447.2,175.6z M369.9,185.5v6.1h0.8v-4.2l4.3,4.4v-6.1h-0.8v4.2L369.9,185.5z M365.5,185.7v0.8
	h1.4v5h0.8v-5h1.4v-0.8H365.5z M515.9,195.5v5.7h0.7v-4.9l1.7,4.9h0.7l1.7-4.8v4.8h0.7v-5.7h-1l-1.4,4c-0.1,0.4-0.2,0.7-0.3,0.9
	c-0.1-0.2-0.2-0.5-0.3-0.8l-1.3-4.1L515.9,195.5L515.9,195.5z M522.6,195.5v5.7h2.1c0.3,0,0.7,0,0.9-0.1c0.3-0.1,0.5-0.2,0.7-0.3
	s0.3-0.3,0.5-0.5s0.3-0.5,0.4-0.8c0.1-0.3,0.2-0.7,0.2-1.2s-0.1-0.9-0.2-1.3c-0.1-0.4-0.4-0.7-0.7-1c-0.2-0.2-0.5-0.4-0.8-0.4
	c-0.2-0.1-0.6-0.1-1-0.1L522.6,195.5L522.6,195.5z M552,195.5v5.7h2.1c0.3,0,0.6,0,0.9-0.1c0.3-0.1,0.5-0.2,0.7-0.3s0.4-0.3,0.5-0.5
	c0.2-0.2,0.3-0.5,0.4-0.8c0.1-0.3,0.2-0.7,0.2-1.2s-0.1-0.9-0.2-1.3c-0.1-0.4-0.4-0.7-0.7-1c-0.2-0.2-0.5-0.4-0.8-0.4
	c-0.2-0.1-0.7-0.4-1-0.1L552,195.5L552,195.5z M557.8,195.5v5.7h4.3v-0.7h-3.5v-1.9h3.2V198h-3.2v-1.8h3.4v-0.7H557.8z M523.4,196.2
	h1.2c0.5,0,0.8,0,1,0.1c0.3,0.1,0.5,0.3,0.7,0.7c0.2,0.3,0.3,0.8,0.3,1.4c0,0.4-0.1,0.8-0.2,1.1c-0.1,0.3-0.2,0.6-0.4,0.7
	c-0.1,0.1-0.3,0.2-0.5,0.3s-0.7-0.2-0.9,0.1h-1.2L523.4,196.2L523.4,196.2z M552.8,196.2h1.2c0.5,0,0.8,0,1,0.1
	c0.3,0.1,0.5,0.3,0.7,0.7c0.2,0.3,0.3,0.8,0.3,1.4c0,0.4-0.1,0.8-0.2,1.1c-0.1,0.3-0.2,0.6-0.4,0.7c-0.1,0.1-0.3,0.2-0.5,0.3
	s-0.5,0.1-0.9,0.1h-1.2L552.8,196.2L552.8,196.2z M262,200.7c-0.9,0-1.6,0.3-2.3,0.9c-0.6,0.6-1,1.3-1,2.2s0.3,1.6,0.9,2.3
	c0.6,0.6,1.4,0.9,2.3,0.9s1.7-0.3,2.3-0.9c0.6-0.6,0.9-1.4,0.9-2.3c0-0.8-0.3-1.5-0.9-2.2C263.6,201,262.9,200.7,262,200.7
	L262,200.7z M266.2,200.9v5.8h0.8v-2.8l2.6,2.8h1l-2.8-3.1l2.8-2.7h-1.1l-2.5,2.4v-2.4H266.2z M432.3,201.4c-0.5,0-0.9,0.1-1.2,0.4
	c-0.3,0.3-0.5,0.6-0.5,1.1c0,0.2,0,0.3,0.1,0.5s0.2,0.3,0.3,0.5c0.1,0.2,0.3,0.3,0.5,0.4c0.2,0.1,0.4,0.2,0.8,0.3
	c0.3,0.1,0.6,0.3,0.7,0.4c0.2,0.1,0.3,0.2,0.4,0.4s0.2,0.3,0.2,0.5c0,0.3-0.1,0.5-0.3,0.7c-0.2,0.2-0.5,0.3-0.8,0.3
	c-0.6,0-1.1-0.3-1.3-1l-0.8,0.2c0.2,0.5,0.5,0.9,0.9,1.2s0.8,0.4,1.3,0.4s0.9-0.2,1.3-0.5s0.5-0.8,0.5-1.3c0-0.2,0-0.4-0.1-0.6
	c-0.1-0.2-0.2-0.4-0.3-0.5c-0.1-0.2-0.3-0.3-0.5-0.5c-0.2-0.1-0.5-0.3-0.9-0.4c-0.4-0.2-0.7-0.3-0.8-0.5c-0.2-0.1-0.2-0.3-0.2-0.5
	s0.1-0.4,0.3-0.5c0.2-0.1,0.4-0.2,0.7-0.2c0.3,0,0.5,0,0.6,0.1s0.3,0.2,0.5,0.4l0.7-0.5c-0.2-0.3-0.5-0.5-0.8-0.6
	C432.9,201.5,432.6,201.4,432.3,201.4L432.3,201.4z M438.1,201.4c-0.9,0-1.7,0.3-2.3,0.9c-0.6,0.6-0.9,1.3-0.9,2.2s0.3,1.6,1,2.2
	c0.6,0.6,1.4,0.9,2.3,0.9c0.6,0,1.2-0.1,1.7-0.4v-0.9c-0.6,0.3-1.1,0.5-1.7,0.5c-0.7,0-1.3-0.2-1.8-0.7c-0.5-0.4-0.7-1-0.7-1.6
	s0.2-1.2,0.7-1.6c0.5-0.4,1-0.7,1.7-0.7c0.5,0,1.1,0.2,1.8,0.5v-0.9C439.3,201.5,438.7,201.4,438.1,201.4L438.1,201.4z M261.9,201.5
	c0.7,0,1.3,0.2,1.7,0.7c0.5,0.4,0.7,1,0.7,1.6s-0.2,1.2-0.7,1.6c-0.5,0.5-1,0.7-1.7,0.7s-1.2-0.2-1.7-0.7c-0.5-0.4-0.7-1-0.7-1.6
	s0.2-1.2,0.7-1.6C260.7,201.7,261.3,201.5,261.9,201.5z M311,203.3l-2.8,6.1h0.8l0.7-1.5h2.5l0.7,1.5h0.8L311,203.3z M314.6,203.5
	v5.9h0.8V207h0.2l1.7,2.4h0.9l-1.7-2.5c0.5-0.1,1-0.4,1.2-0.7c0.3-0.3,0.4-0.6,0.4-1c0-0.5-0.2-0.9-0.6-1.2s-0.9-0.5-1.5-0.5H314.6z
	 M315.4,204.2c0.4,0,0.8,0,1,0.1s0.4,0.2,0.6,0.3c0.1,0.2,0.2,0.4,0.2,0.6c0,0.7-0.6,1-1.8,1L315.4,204.2L315.4,204.2z M311,205.1
	l0.9,2.1H310L311,205.1z M120.2,206.5l-2.7,6.1h0.8l0.7-1.5h2.5l0.7,1.5h0.8L120.2,206.5z M123.5,206.7v0.8h2.6l-2.8,5h4.1v-0.8
	h-2.8l2.8-5.1h-3.9V206.7z M120.2,208.3l0.9,2.1h-1.9L120.2,208.3z M372.6,216l-2.7,6.1h0.8l0.7-1.5h2.5l0.7,1.5h0.8L372.6,216z
	 M524.6,222.2c-0.5,0-1,0.1-1.4,0.3s-0.7,0.6-1,1c-0.2,0.4-0.3,1-0.3,1.6c0,0.5,0.1,1.1,0.3,1.5c0.2,0.5,0.5,0.8,0.9,1.1
	s0.9,0.4,1.5,0.4s1.1-0.1,1.5-0.5c0.4-0.3,0.7-0.8,0.9-1.4l-0.8-0.2c-0.1,0.5-0.3,0.8-0.6,1.1c-0.3,0.2-0.6,0.4-1.1,0.4
	c-0.3,0-0.7-0.1-1-0.3s-0.5-0.4-0.7-0.8c-0.1-0.4-0.2-0.8-0.2-1.3c0-0.4,0-0.7,0.2-1.1c0.1-0.4,0.3-0.6,0.6-0.8s0.7-0.3,1.1-0.3
	c0.4,0,0.7,0.1,0.9,0.3c0.3,0.2,0.5,0.5,0.6,0.9l0.7-0.2c-0.2-0.5-0.5-0.9-0.8-1.2C525.6,222.4,525.1,222.2,524.6,222.2L524.6,222.2
	z M376.2,216.2v5.9h2.7v-0.8H377v-5.1L376.2,216.2L376.2,216.2z M516.3,222.3v5.7h2.1c0.3,0,0.6,0,0.9-0.1c0.3-0.1,0.5-0.2,0.7-0.3
	s0.4-0.3,0.5-0.5c0.2-0.2,0.3-0.5,0.4-0.8c0.1-0.3,0.2-0.7,0.2-1.2s-0.1-1-0.2-1.4c-0.1-0.4-0.4-0.7-0.7-1c-0.2-0.2-0.5-0.3-0.8-0.4
	c-0.2-0.1-0.7-0.4-1-0.1L516.3,222.3L516.3,222.3z M175.9,216.4l-1.6,6.1h0.8l1-3.7l1.7,4l1.7-3.9l1,3.7h0.8l-1.6-6.1l-1.8,4.4
	L175.9,216.4z M168.4,216.4v6.1h0.8v-4.2l4.3,4.4v-6.1h-0.8v4.2L168.4,216.4z M517.1,223h1.2c0.5,0,0.8,0,1,0.1
	c0.3,0.1,0.5,0.3,0.7,0.7s0.3,0.8,0.3,1.4c0,0.4-0.1,0.8-0.2,1.1c-0.1,0.3-0.2,0.5-0.4,0.7c-0.1,0.1-0.3,0.2-0.5,0.3
	s-0.7-0.2-0.9,0.1h-1.2L517.1,223L517.1,223z M372.6,217.9l0.9,2.1h-1.9L372.6,217.9z M414.3,221.7l-2.7,6.1h0.8l0.7-1.5h2.5
	l0.7,1.5h0.8L414.3,221.7z M407.7,221.7c-0.9,0-1.6,0.3-2.3,0.9c-0.6,0.6-0.9,1.4-0.9,2.2s0.3,1.5,0.9,2.2c0.6,0.6,1.4,1,2.4,1
	c0.4,0,0.8-0.1,1.2-0.2c0.3-0.1,0.6-0.3,0.9-0.5s0.5-0.5,0.7-0.7c0.2-0.3,0.3-0.6,0.3-0.8c0.1-0.2,0.1-0.5,0.1-0.9h-2.5v0.8h1.6
	c-0.3,1-1,1.5-2.2,1.5c-0.8,0-1.4-0.2-1.8-0.7s-0.7-1-0.7-1.6c0-0.7,0.2-1.2,0.7-1.7c0.5-0.4,1-0.7,1.7-0.7c0.8,0,1.5,0.3,2.1,0.9
	l0.6-0.6c-0.4-0.4-0.9-0.7-1.3-0.9C408.7,221.8,408.3,221.7,407.7,221.7L407.7,221.7z M414.3,223.6l0.9,2.1h-1.9L414.3,223.6z
	 M341.1,227.2l-1.6,6.1h0.8l1-3.8l1.7,4l1.7-4l1,3.8h0.8l-1.6-6.1l-1.8,4.3L341.1,227.2z M348.6,227.2c-0.3,0.1-0.6,0.2-0.9,0.4
	c-0.3,0.3-0.5,0.6-0.5,1.1c0,0.2,0,0.3,0.1,0.5s0.2,0.3,0.3,0.5c0.1,0.2,0.3,0.3,0.5,0.4c0.2,0.1,0.4,0.2,0.8,0.4
	c0.3,0.1,0.6,0.3,0.7,0.4c0.2,0.1,0.3,0.2,0.4,0.4s0.2,0.3,0.2,0.5c0,0.3-0.1,0.5-0.3,0.7c-0.2,0.2-0.5,0.3-0.8,0.3
	c-0.6,0-1-0.3-1.3-1L347,232c0.2,0.5,0.5,0.9,0.9,1.2s0.8,0.4,1.3,0.4s0.9-0.2,1.3-0.5s0.5-0.8,0.5-1.3c0-0.2,0-0.4-0.1-0.6
	c-0.1-0.2-0.1-0.4-0.3-0.5c-0.1-0.2-0.3-0.3-0.5-0.5c-0.2-0.1-0.5-0.3-0.9-0.4c-0.4-0.2-0.6-0.3-0.8-0.5c-0.2-0.1-0.3-0.3-0.3-0.5
	s0.1-0.4,0.3-0.5c0.2-0.1,0.4-0.2,0.7-0.2c0.3,0,0.5,0,0.6,0.1s0.3,0.2,0.5,0.4l0.7-0.5c-0.2-0.3-0.5-0.5-0.8-0.6s-0.6-0.2-1-0.2
	C348.8,227.2,348.7,227.2,348.6,227.2L348.6,227.2z M317.9,247.1l-2.8,6.1h0.8l0.7-1.5h2.5l0.7,1.5h0.8L317.9,247.1z M312.2,247.3
	v5.8h2.7v-0.8H313v-5.1h-0.8V247.3z M317.9,248.9l0.9,2.1H317L317.9,248.9z M248.6,255.7v0.8h1.4v5.1h0.8v-5.1h1.4v-0.8H248.6z
	 M252.9,255.7l1.8,2.9l-1.8,3h0.9l1.4-2.3l1.3,2.3h0.9l-1.8-3l1.8-2.9h-0.9l-1.3,2.1l-1.3-2.1L252.9,255.7L252.9,255.7z M59.3,269.2
	l-2.7,6.1h0.8l0.7-1.5h2.5l0.7,1.5h0.8L59.3,269.2z M62.8,269.5v5.8h0.8v-2.8l2.6,2.8h1l-2.9-3.1l2.8-2.7H66l-2.5,2.4v-2.4
	L62.8,269.5L62.8,269.5z M59.3,271.1l1,2.1h-1.9L59.3,271.1z M438.2,273.9v5.8h0.8v-2.8h2.4v-0.8H439v-1.4h2.4v-0.8L438.2,273.9
	L438.2,273.9z M442.5,273.9v5.8h2.7v-0.8h-1.9v-5.1h-0.8V273.9z"/>
<polygon points="151.1,311 151.1,316.8 151.9,316.8 151.9,314 154.7,314 154.7,316.8 155.5,316.8 155.5,311 154.7,311 154.7,313.3 
	151.9,313.3 151.9,311 "/>
<rect x="156.7" y="311" width="0.8" height="5.8"/>
<path class="st0" d="M352,168.5"/>
<path class="st0" d="M381.9,114.9"/>
</svg>
